<?xml version="1.0" encoding="utf-8"?>
<!-- Generator: Adobe Illustrator 17.0.0, SVG Export Plug-In . SVG Version: 6.00 Build 0)  -->
<!DOCTYPE svg PUBLIC "-//W3C//DTD SVG 1.0//EN" "http://www.w3.org/TR/2001/REC-SVG-20010904/DTD/svg10.dtd">
<svg version="1.0" id="Layer_1" xmlns="http://www.w3.org/2000/svg" xmlns:xlink="http://www.w3.org/1999/xlink" x="0px" y="0px"
	 width="393.695px" height="95.251px" viewBox="0 0 393.695 95.251" enable-background="new 0 0 393.695 95.251"
	 xml:space="preserve">
<g>
	<path fill="#008184" d="M60.745,58.319c0,20.726-7.607,36.932-30.648,36.932C9.481,95.251,0,82.794,0,59.091
		c0-21.608,8.268-37.594,29.986-37.594C50.382,21.498,60.745,30.979,60.745,58.319z M17.859,0c4.63,0,8.378,3.748,8.378,8.378
		s-3.748,8.379-8.378,8.379s-8.378-3.749-8.378-8.379S13.229,0,17.859,0z M41.893,58.319c0-17.529-1.433-22.379-11.906-22.379
		c-9.481,0-11.135,5.622-11.135,23.151c0,14.442,0.992,21.718,11.245,21.718C40.459,80.809,41.893,74.856,41.893,58.319z M41.231,0
		c4.63,0,8.378,3.748,8.378,8.378s-3.748,8.379-8.378,8.379s-8.379-3.749-8.379-8.379S36.601,0,41.231,0z"/>
	<path fill="#008184" d="M70.228,42.224c0-12.127,12.568-20.726,27.672-20.726c8.048,0,14.772,1.213,23.041,5.733l-4.851,16.206
		c-4.74-4.41-10.693-7.497-18.19-7.497c-4.851,0-8.82,1.433-8.82,5.181c0,10.253,34.948,7.717,34.948,32.191
		c0,15.875-14.773,21.939-30.979,21.939c-6.615,0-15.655-0.992-24.254-6.615l5.843-16.096c5.623,5.182,12.347,8.268,20.285,8.268
		c5.733,0,10.253-1.653,10.253-5.843C105.175,62.839,70.228,66.918,70.228,42.224z"/>
	<path fill="#008184" d="M190.617,88.857c-8.379,4.521-15.214,6.395-23.592,6.395c-21.277,0-31.971-13.34-31.971-37.042
		c0-23.372,13.34-36.711,34.396-36.711c7.497,0,14.111,1.874,20.726,5.953l-5.843,14.663c-5.953-4.63-10.143-6.173-15.875-6.173
		c-9.371,0-14.552,6.725-14.552,21.938c0,14.883,4.299,23.041,14.993,23.041c6.725,0,12.017-2.095,17.639-5.953L190.617,88.857z"/>
	<path fill="#008184" d="M259.191,58.319c0,20.726-7.606,36.932-30.647,36.932c-20.616,0-30.097-12.458-30.097-36.16
		c0-21.608,8.268-37.594,29.986-37.594C248.829,21.498,259.191,30.979,259.191,58.319z M216.306,0c4.63,0,8.378,3.748,8.378,8.378
		s-3.748,8.379-8.378,8.379c-4.631,0-8.379-3.749-8.379-8.379S211.675,0,216.306,0z M240.339,58.319
		c0-17.529-1.433-22.379-11.906-22.379c-9.481,0-11.135,5.622-11.135,23.151c0,14.442,0.992,21.718,11.245,21.718
		C238.907,80.809,240.339,74.856,240.339,58.319z M239.678,0c4.63,0,8.379,3.748,8.379,8.378s-3.749,8.379-8.379,8.379
		c-4.631,0-8.379-3.749-8.379-8.379S235.047,0,239.678,0z"/>
	<path fill="#008184" d="M289.18,22.49v56.997h32.963v14.663H271.43V22.49H289.18z"/>
	<path fill="#008184" d="M328.43,94.149l22.489-71.659h19.954l22.821,71.659h-18.852l-3.97-14.663h-20.615l-3.638,14.663H328.43z
		 M360.18,39.467l-6.504,26.238h13.56L360.18,39.467z"/>
</g>
</svg>
